<?xml version="1.0" ?><svg data-name="Layer 2" id="Layer_2" viewBox="0 0 2010 2010" xmlns="http://www.w3.org/2000/svg" xmlns:xlink="http://www.w3.org/1999/xlink"><defs><style>.cls-1{fill:url(#linear-gradient);}.cls-2{fill:url(#linear-gradient-2);}.cls-3{fill:url(#linear-gradient-3);}.cls-4{fill:url(#linear-gradient-4);}</style><linearGradient gradientUnits="userSpaceOnUse" id="linear-gradient" x1="60.22" x2="1949.78" y1="840.82" y2="840.82"><stop offset="0" stop-color="#69bbff"/><stop offset="1" stop-color="#9de0f4"/></linearGradient><linearGradient gradientUnits="userSpaceOnUse" id="linear-gradient-2" x1="1063.07" x2="33.89" y1="1002.52" y2="2259.76"><stop offset="0" stop-color="#69bbff"/><stop offset="1" stop-color="#1798ff"/></linearGradient><linearGradient id="linear-gradient-3" x1="1390.16" x2="360.97" xlink:href="#linear-gradient-2" y1="1270.28" y2="2527.52"/><linearGradient id="linear-gradient-4" x1="1717.25" x2="688.06" xlink:href="#linear-gradient-2" y1="1538.03" y2="2795.27"/></defs><path class="cls-1" d="M1263.89,1526.71h-709a494.66,494.66,0,1,1,0-989.32,497,497,0,0,1,89.78,8.14A688.34,688.34,0,0,1,865.15,282.69c116.8-83.58,254.68-127.76,398.74-127.76a686,686,0,0,1,267,1317.85A681.56,681.56,0,0,1,1263.89,1526.71Z"/><path class="cls-2" d="M458.73,1855.07h0c-54.56,0-92.43-54.34-73.56-105.52l51.34-139.24a23.68,23.68,0,0,1,22.22-15.48h0a23.68,23.68,0,0,1,22.21,15.48l51.34,139.24C551.15,1800.73,513.28,1855.07,458.73,1855.07Z"/><path class="cls-3" d="M1005,1855.07h0c-54.55,0-92.43-54.34-73.55-105.52l51.34-139.24a23.67,23.67,0,0,1,22.21-15.48h0a23.67,23.67,0,0,1,22.21,15.48l51.34,139.24C1097.43,1800.73,1059.55,1855.07,1005,1855.07Z"/><path class="cls-4" d="M1551.27,1855.07h0c-54.55,0-92.42-54.34-73.55-105.52l51.34-139.24a23.68,23.68,0,0,1,22.21-15.48h0a23.68,23.68,0,0,1,22.22,15.48l51.34,139.24C1643.7,1800.73,1605.83,1855.07,1551.27,1855.07Z"/></svg>