<?xml version="1.0" ?><svg viewBox="0 0 24 24" xmlns="http://www.w3.org/2000/svg" xmlns:xlink="http://www.w3.org/1999/xlink"><defs><linearGradient gradientUnits="userSpaceOnUse" id="a" x1="3.74872" x2="20.25105" y1="3.74879" y2="20.25111"><stop offset="0" stop-color="#fff" stop-opacity="0"/><stop offset="1" stop-color="#fff" stop-opacity="0.1"/></linearGradient></defs><title/><path d="M15.5,22.5a.49452.49452,0,0,1-.248-.06592L12,20.57568l-3.252,1.8584a.5.5,0,1,1-.4961-.86816l3.5-2a.49967.49967,0,0,1,.4961,0l3.5,2A.49983.49983,0,0,1,15.5,22.5Z" fill="#b3e5fc"/><path d="M16,19.53076a.49939.49939,0,0,1-.30176-.10156L11.998,16.626,8.2998,19.3999a.49983.49983,0,0,1-.79687-.45312L8,14.31006,3.79785,12.45752a.50032.50032,0,0,1,0-.915L8,9.68994,7.50293,5.05322A.49983.49983,0,0,1,8.2998,4.6001L12,7.375l3.7002-2.7749a.49983.49983,0,0,1,.79687.45312L16,9.68994l4.20215,1.85254a.50032.50032,0,0,1,0,.915L16,14.31006l.49707,4.66748A.49926.49926,0,0,1,16,19.53076Z" fill="#81d4fa"/><path d="M12,15.5a.49625.49625,0,0,1,.30176.10156l3.07812,2.33252-.41308-3.88086a.50023.50023,0,0,1,.29492-.51074L18.76074,12l-3.499-1.54248a.49927.49927,0,0,1-.29492-.51074l.41308-3.85694L12.2998,8.3999a.498.498,0,0,1-.5996,0L8.62012,6.08984,9.0332,9.94678a.49927.49927,0,0,1-.29492.51074L5.23926,12l3.499,1.54248a.49927.49927,0,0,1,.29492.51074l-.41308,3.85694L11.7002,15.6001A.49741.49741,0,0,1,12,15.5Z" fill="#b3e5fc"/><path d="M12,4.5a.49922.49922,0,0,1-.248-.06592l-3.5-2a.5.5,0,1,1,.4961-.86816L12,3.42432l3.252-1.8584a.5.5,0,1,1,.4961.86816l-3.5,2A.49922.49922,0,0,1,12,4.5Z" fill="#b3e5fc"/><path d="M12,24a.49971.49971,0,0,1-.5-.5V.5a.5.5,0,0,1,1,0v23A.49971.49971,0,0,1,12,24Z" fill="#81d4fa"/><path d="M18.96973,20.53125h-.002a.50044.50044,0,0,1-.498-.50244l.01855-4.03125a.49887.49887,0,0,1,.25-.43018L22.25,13.53613a.49966.49966,0,1,1,.5.86524l-3.2627,1.88769-.01757,3.74463A.49951.49951,0,0,1,18.96973,20.53125Z" fill="#b3e5fc"/><path d="M1.5,10.53125a.49982.49982,0,0,1-.25-.93262L4.5127,7.71094l.01757-3.74463a.49951.49951,0,0,1,.5-.49756h.002a.50044.50044,0,0,1,.498.50244L5.51172,8.00244a.49887.49887,0,0,1-.25.43018L1.75,10.46387A.49329.49329,0,0,1,1.5,10.53125Z" fill="#b3e5fc"/><path d="M22.04492,18.25a.49446.49446,0,0,1-.248-.06592L1.707,6.68408a.5.5,0,0,1,.49609-.86816l20.08985,11.5a.50005.50005,0,0,1-.248.93408Z" fill="#81d4fa"/><path d="M22.5,10.53125a.49329.49329,0,0,1-.25-.06738L18.73828,8.43262a.49887.49887,0,0,1-.25-.43018l-.01855-4.03125a.50044.50044,0,0,1,.498-.50244h.002a.49951.49951,0,0,1,.5.49756l.01757,3.74463L22.75,9.59863a.49982.49982,0,0,1-.25.93262Z" fill="#b3e5fc"/><path d="M5.03027,20.53125a.49951.49951,0,0,1-.5-.49756L4.5127,16.28906,1.25,14.40137a.49966.49966,0,1,1,.5-.86524l3.51172,2.03125a.49887.49887,0,0,1,.25.43018l.01855,4.03125a.50044.50044,0,0,1-.498.50244Z" fill="#b3e5fc"/><path d="M1.95508,18.25a.50005.50005,0,0,1-.248-.93408l20.08985-11.5a.5.5,0,0,1,.49609.86816l-20.08985,11.5A.49446.49446,0,0,1,1.95508,18.25Z" fill="#81d4fa"/><path d="M22.25,13.53613l-3.263,1.88739L16.58862,14.0506l3.61353-1.59308a.50032.50032,0,0,0,0-.915L16.58862,9.9494,18.987,8.57648l3.263,1.88739a.49329.49329,0,0,0,.25.06738.49982.49982,0,0,0,.25-.93262L19.99048,8.00208l2.30249-1.318a.5.5,0,0,0-.49609-.86816L19.48462,7.13953l-.01489-3.17322a.49951.49951,0,0,0-.5-.49756h-.002a.50044.50044,0,0,0-.498.50244l.01721,3.73944L16.06348,9.0979l.43359-4.04468a.49983.49983,0,0,0-.79687-.45312l-3.2002,2.4v-2.71l3.248-1.856a.5.5,0,1,0-.4961-.86816L12.5,3.13861V.5a.5.5,0,0,0-1,0V3.13861L8.748,1.56592a.5.5,0,1,0-.4961.86816L11.5,4.2901v2.71l-3.2002-2.4a.49983.49983,0,0,0-.79687.45312L7.93652,9.0979,5.51306,7.71063l.01721-3.73944a.50044.50044,0,0,0-.498-.50244h-.002a.49951.49951,0,0,0-.5.49756L4.51538,7.13953,2.20312,5.81592a.5.5,0,0,0-.49609.86816l2.30249,1.318L1.25,9.59863a.49982.49982,0,0,0,.25.93262.49329.49329,0,0,0,.25-.06738L5.013,8.57648,7.41138,9.9494,3.79785,11.54248a.50032.50032,0,0,0,0,.915L7.41138,14.0506,5.013,15.42352,1.75,13.53613a.49966.49966,0,1,0-.5.86524l2.75952,1.59655L1.707,17.31592a.5.5,0,1,0,.49609.86816l2.31226-1.32361.01489,3.17322a.49951.49951,0,0,0,.5.49756h.002a.50044.50044,0,0,0,.498-.50244l-.01721-3.73944L7.93652,14.9021l-.43359,4.04468a.49983.49983,0,0,0,.79687.45312L11.5,16.99957V19.7099l-3.248,1.856a.5.5,0,1,0,.4961.86816L11.5,20.86139V23.5a.5.5,0,0,0,1,0V20.86139l2.752,1.57269A.49452.49452,0,0,0,15.5,22.5a.49983.49983,0,0,0,.248-.93408L12.5,19.7099V17.00623l3.19824,2.423a.4996.4996,0,0,0,.79883-.45166l-.434-4.07568,2.42389,1.38751-.01721,3.73944a.50044.50044,0,0,0,.498.50244h.002a.49951.49951,0,0,0,.5-.49756l.01489-3.17322,2.31226,1.32361a.5.5,0,0,0,.49609-.86816l-2.30249-1.318L22.75,14.40137a.49966.49966,0,1,0-.5-.86524Z" fill="url(#a)"/></svg>